<?xml version="1.0" standalone="no"?>
<!DOCTYPE svg PUBLIC "-//W3C//DTD SVG 20010904//EN"
 "http://www.w3.org/TR/2001/REC-SVG-20010904/DTD/svg10.dtd">
<svg version="1.0" xmlns="http://www.w3.org/2000/svg"
 width="500.000000pt" height="500.000000pt" viewBox="0 0 500.000000 500.000000"
 preserveAspectRatio="xMidYMid meet">
<metadata>
Created by potrace 1.14, written by Peter Selinger 2001-2017
</metadata>
<g transform="translate(0.000000,500.000000) scale(0.100000,-0.100000)"
fill="#000000" stroke="none">
<path d="M2285 4103 c-176 -39 -267 -68 -371 -117 -65 -31 -126 -64 -136 -73
-14 -12 -18 -31 -18 -84 l0 -68 44 29 c80 55 234 119 406 169 15 5 33 25 48
52 12 24 35 56 49 71 27 28 23 31 -22 21z"/>
<path d="M2732 4077 c20 -19 45 -52 56 -74 19 -37 24 -40 99 -57 289 -67 596
-250 756 -451 l40 -50 -71 -6 c-39 -4 -96 -15 -125 -24 l-55 -17 -43 48 c-105
117 -169 178 -244 232 -125 90 -154 108 -238 148 -84 39 -96 38 -97 -13 0 -12
-4 -33 -9 -46 -9 -24 -5 -28 92 -83 110 -62 205 -135 305 -233 66 -65 98 -108
89 -117 -3 -3 -59 -29 -124 -57 l-119 -52 28 -60 c17 -37 34 -59 42 -57 8 1
72 27 142 57 l128 54 18 -30 c76 -125 157 -358 173 -496 l7 -62 -29 -7 c-15
-3 -35 -8 -44 -10 -12 -3 -18 12 -27 82 -26 192 -127 316 -304 373 -21 7 -68
13 -105 14 l-68 2 -3 55 c-3 72 -36 175 -72 225 -15 22 -55 85 -88 140 -33 55
-71 112 -86 128 l-25 27 -58 -31 c-74 -41 -79 -45 -65 -61 8 -11 -12 -13 -104
-13 -106 0 -129 4 -104 20 18 11 11 20 -44 54 -30 18 -57 38 -60 44 -8 19 -80
-68 -126 -152 -24 -42 -58 -100 -77 -128 -50 -75 -83 -162 -90 -238 l-6 -65
-36 -1 c-20 0 -45 -2 -56 -4 -11 -2 -35 -7 -54 -10 -67 -13 -165 -71 -222
-132 -64 -70 -99 -158 -107 -264 -5 -68 -5 -69 -31 -63 -14 3 -36 7 -48 10
-15 3 -23 12 -23 25 0 39 39 213 64 284 35 101 113 265 130 271 8 3 56 -12
107 -34 85 -36 182 -72 194 -72 7 0 55 101 55 114 0 6 -61 35 -135 65 l-134
54 21 30 c89 124 357 332 501 386 26 10 26 10 12 52 -8 23 -15 50 -15 60 0 17
-2 17 -55 -1 -147 -51 -352 -193 -485 -339 -359 -391 -485 -914 -341 -1421 28
-100 72 -212 93 -237 7 -9 22 -8 61 4 29 8 56 18 60 23 5 4 -5 34 -21 66 -47
94 -91 249 -109 386 -9 70 -14 130 -11 134 4 3 29 3 57 -1 l50 -7 11 -50 c28
-135 109 -237 237 -300 53 -26 80 -32 148 -36 l82 -4 6 -67 c10 -126 63 -225
164 -307 82 -67 145 -86 298 -92 204 -6 293 21 404 124 83 77 123 158 129 263
l4 79 84 4 c71 4 94 10 160 43 129 63 192 142 230 284 7 30 15 56 17 58 2 2
34 6 70 10 l66 6 -15 -44 c-9 -24 -21 -51 -29 -59 -7 -8 -32 -53 -55 -100 -23
-47 -50 -96 -60 -110 -10 -14 -30 -54 -44 -89 -32 -80 -34 -157 -6 -220 l20
-44 -32 -54 c-131 -216 -345 -414 -543 -503 -293 -132 -710 -115 -922 36 -62
44 -143 121 -143 135 0 4 21 9 48 11 41 4 51 1 78 -25 40 -36 60 -31 113 29
66 76 86 171 52 257 -13 33 -31 34 -126 4 l-70 -23 -6 -43 c-7 -54 -26 -67
-56 -39 -16 15 -23 33 -23 57 0 47 11 62 51 75 34 11 56 50 74 135 l7 34 -65
-5 c-109 -9 -223 -81 -268 -170 -11 -21 -23 -38 -27 -38 -58 0 -262 98 -335
161 -105 91 -211 269 -256 429 -60 219 -49 526 29 760 32 95 152 338 195 393
30 37 44 47 67 47 47 0 98 57 98 108 0 78 -72 128 -141 99 -48 -20 -70 -49
-76 -99 -4 -30 -20 -63 -54 -110 -88 -122 -149 -241 -198 -381 -86 -250 -106
-528 -56 -771 21 -101 88 -280 131 -352 120 -199 319 -355 517 -406 l88 -23
10 -40 c18 -65 46 -111 110 -180 104 -111 263 -194 464 -241 98 -23 360 -26
475 -5 96 17 250 66 320 101 168 85 398 302 511 480 l66 105 84 5 c117 8 171
40 240 141 82 121 172 338 184 444 4 33 20 116 35 185 44 191 53 253 55 405 1
90 7 150 15 167 17 37 -1 82 -41 99 -71 29 -120 -75 -64 -135 24 -25 25 -33
25 -134 -1 -187 -49 -467 -89 -518 -11 -14 -23 -38 -26 -54 -4 -17 -12 -30
-19 -30 -7 0 -22 -32 -35 -72 -47 -146 -92 -237 -144 -294 -61 -67 -92 -84
-152 -84 -39 0 -52 5 -77 30 -26 27 -30 36 -25 67 4 20 30 77 58 127 29 50 68
122 88 159 l36 68 -22 17 -22 17 39 65 c21 36 73 101 115 145 42 44 102 111
132 148 l56 68 -6 112 c-14 274 -123 533 -310 733 -132 142 -366 294 -567 369
-88 32 -262 75 -370 90 l-45 7 37 -35z m-64 -672 c73 -22 130 -69 166 -139 29
-56 31 -68 34 -182 l4 -122 126 -4 c159 -5 209 -25 282 -105 61 -69 70 -105
70 -280 0 -124 -3 -143 -24 -189 -28 -60 -80 -115 -139 -146 -35 -19 -64 -23
-177 -28 l-135 -5 -5 -125 c-5 -112 -9 -131 -35 -184 -56 -113 -132 -146 -331
-146 -188 0 -271 35 -329 141 -27 50 -30 64 -35 184 l-5 130 -135 5 c-156 6
-203 22 -265 92 -67 73 -75 103 -75 284 0 152 1 163 26 212 30 59 79 106 143
135 37 17 73 22 179 25 l132 4 0 117 c0 103 3 122 26 171 39 84 96 134 184
161 47 14 263 10 318 -6z m1107 -136 c59 -133 91 -325 76 -467 -7 -60 -9 -65
-68 -123 l-60 -61 -12 83 c-27 186 -103 414 -179 534 -29 44 -30 50 -15 59 33
18 109 34 169 35 l61 1 28 -61z"/>
<path d="M2320 3288 c-19 -13 -45 -39 -57 -57 -22 -32 -23 -44 -23 -192 0
-211 12 -199 -200 -199 -143 0 -165 -2 -201 -21 -63 -32 -71 -62 -67 -250 l3
-159 43 -42 42 -43 176 -5 c159 -5 177 -7 190 -24 11 -15 14 -57 14 -173 0
-136 2 -159 21 -194 32 -64 75 -79 239 -79 164 0 200 9 237 57 27 36 28 40 33
206 6 219 -5 207 202 207 163 0 180 4 233 60 l30 31 3 157 c3 178 -5 208 -67
249 -32 21 -44 23 -191 23 -216 0 -203 -12 -210 203 -5 180 -9 193 -74 241
-24 19 -44 21 -184 24 -151 3 -159 2 -192 -20z"/>
<path d="M2431 4065 c-81 -36 -133 -145 -111 -235 40 -165 223 -225 344 -112
81 76 88 220 13 300 -55 59 -168 80 -246 47z m142 -106 c25 -11 47 -47 47 -75
0 -12 -5 -11 -26 5 -56 44 -131 14 -122 -49 6 -40 -16 -40 -37 1 -43 82 48
159 138 118z"/>
<path d="M4075 2048 c-48 -109 -147 -247 -248 -345 -52 -52 -103 -93 -113 -93
-11 0 -43 16 -73 35 l-55 35 -38 -58 c-21 -31 -38 -59 -38 -62 0 -3 23 -18 51
-35 71 -42 75 -49 50 -81 -32 -41 -205 -188 -282 -239 -134 -90 -362 -185
-525 -219 -244 -51 -542 -34 -778 45 -94 32 -273 120 -349 173 -110 75 -240
190 -339 298 -51 55 -97 104 -103 109 -5 5 -57 49 -114 99 -57 50 -106 89
-108 86 -8 -8 69 -150 133 -247 72 -108 203 -253 308 -338 147 -119 353 -240
486 -286 224 -76 394 -101 635 -91 178 7 281 25 450 80 503 165 940 625 1070
1126 9 34 14 64 12 66 -2 3 -17 -24 -32 -58z"/>
<path d="M3045 1863 c-24 -98 -98 -197 -195 -263 -50 -34 -57 -44 -83 -112
-15 -42 -45 -103 -67 -137 -38 -59 -39 -61 -17 -61 54 0 129 32 166 70 42 43
139 231 167 323 10 31 22 57 28 57 6 0 49 -14 96 -31 47 -17 94 -32 104 -33
26 -1 92 105 72 116 -13 7 -254 98 -260 98 -2 0 -7 -12 -11 -27z"/>
<path d="M2191 1498 c-7 -24 -26 -61 -42 -82 -36 -49 -36 -56 -1 -88 34 -33
62 -44 137 -53 64 -8 63 -12 14 61 -16 23 -42 77 -59 120 -18 44 -33 80 -34
82 -2 1 -9 -17 -15 -40z"/>
</g>
</svg>
